<svg version="1.2" xmlns="http://www.w3.org/2000/svg" viewBox="0 0 70 70" width="70" height="70">
	<title>Barquito</title>
	<style>
		.s0 { fill: #ffffff } 
	</style>
	<path id="Layer" fill-rule="evenodd" class="s0" d="m62.4 34.3c0 15.2-12.3 27.5-27.5 27.5-15.2 0-27.5-12.3-27.5-27.5 0-15.2 12.3-27.5 27.5-27.5 15.2 0 27.5 12.3 27.5 27.5zm-9.6 3c0-0.2-0.1-0.3-0.4-0.1l-8.4 2.4c0 0 0 0-0.1 0.1-0.9 1-1.7 1.6-1.8 1.8-0.5 0.4-1.2 0.6-1.9 0.6h-3v-3h2.4q0.1 0 0.2-0.1l0.3-0.3q0.3-0.1 0.5-0.4c0.2-0.1 0.3-0.3 0.4-0.4 0.2-0.1 0.3-0.3 0.4-0.4 0.2-0.2 0.4-0.4 0.5-0.6q0.3-0.3 0.4-0.5c0.1-0.2 0.3-0.3 0.4-0.5 0-0.2 0.2-0.3 0.3-0.5 0.1-0.1 0.2-0.3 0.2-0.4q0.4-0.6 0.6-1.1c0.1-0.3 0.2-0.5 0.3-0.6 0-0.3 0.1-0.4 0.1-0.6 0.1-0.5 0.1-1 0.1-1.5 0-0.1 0-0.3-0.1-0.4 0-0.1 0-0.2 0-0.3-0.1-0.5-0.3-0.9-0.5-1.4 0-0.1-0.1-0.3-0.2-0.4-0.2-0.4-0.4-0.7-0.6-1-0.1-0.2-0.2-0.3-0.2-0.4-0.2-0.2-0.4-0.5-0.6-0.7-0.1-0.2-0.3-0.4-0.4-0.6-0.2-0.2-0.3-0.3-0.4-0.5-0.6-0.6-1.1-1.1-1.6-1.6-0.1-0.1-0.2-0.1-0.3-0.2-0.4-0.4-0.8-0.7-1.1-0.9q-0.2-0.2-0.3-0.4c-0.2-0.1-0.3-0.2-0.4-0.2 0-0.1 0-0.1 0-0.1l-0.3-0.1v-2.6c0-0.5-0.2-0.9-0.5-1.1-0.3-0.3-0.6-0.5-1.1-0.5-0.8 0-1.5 0.7-1.5 1.6v1.8h-0.2l-0.4-0.1-0.4-0.1-3-0.9c-0.1 0-0.2 0.1-0.2 0.3l0.5 0.8q0.1 0.2 0.2 0.4c0 0.1 0.1 0.3 0.2 0.5 0.1 0.1 0.2 0.2 0.2 0.4 0.2 0.3 0.3 0.7 0.5 1.1q0.2 0.4 0.3 0.8c0.3 0.7 0.6 1.4 0.8 2.2 0.1 0.2 0.2 0.5 0.2 0.7l0.1 0.1c0.1 0.4 0.1 0.7 0.2 1.1 0.1 0.3 0.1 0.5 0.1 0.7 0 0.3 0 0.6 0 0.9 0.1 0.2 0.1 0.5 0.1 0.7q0 1-0.2 1.8 0 0.3-0.1 0.5c-0.1 0.2-0.2 0.4-0.2 0.6-0.1 0.2-0.1 0.3-0.2 0.4-0.3 0.7-0.6 1.4-1 2-0.5 0.9-1 1.7-1.4 2.3q-0.1 0.1-0.2 0.2c-0.1 0.1 0 0.4 0.2 0.4h3.9v3h-3.9c-1.1 0-2.1-0.5-2.5-1.5-0.3-0.5-0.4-1-0.3-1.5 0-0.1-0.1-0.3-0.3-0.3h-8.1c-0.1 0-0.2 0.1-0.2 0.2v0.2c0 5.1 4.1 9.2 9.2 9.2h14.3c3.4 0 5-4 7-6.8 0.8-1.1 2.7-2 3.3-2.2q0.1-0.1 0.1-0.2zm-31.6-1.7h7.3c0.1 0 0.2-0.1 0.2-0.1 0.2-0.1 0.3-0.3 0.3-0.5 0.7-1 1.2-2.2 1.4-3 0.5-2.1-0.5-5.4-1.7-8.1-0.1-0.2-0.3-0.2-0.5-0.1l-7.1 11.2-0.1 0.2c-0.1 0.1 0 0.3 0.2 0.4z"/>
</svg>