<svg version="1.2" xmlns="http://www.w3.org/2000/svg" viewBox="0 0 70 70" width="70" height="70">
	<title>Discord</title>
	<style>
		.s0 { fill: #ffffff } 
	</style>
	<g id="Layer">
		<path id="Layer" class="s0" d="m31.7 36.6c0 1.8-1.3 3.4-3 3.4-1.7 0-3.1-1.6-3.1-3.4 0-1.9 1.3-3.4 3.1-3.4 1.7 0 3.1 1.5 3 3.4z"/>
		<path id="Layer" class="s0" d="m43 36.6c0 1.8-1.3 3.4-3 3.4-1.7 0-3.1-1.6-3.1-3.4 0-1.9 1.4-3.4 3.1-3.4 1.7 0 3.1 1.5 3 3.4z"/>
		<path id="Layer" fill-rule="evenodd" class="s0" d="m61.1 35.3c0 14.8-12 26.8-26.8 26.8-14.8 0-26.8-12-26.8-26.8 0-14.8 12-26.8 26.8-26.8 14.8 0 26.8 12 26.8 26.8zm-15-10.8c-2.2-1-4.6-1.7-7-2.1q-0.5 0.9-0.9 1.8c-2.6-0.4-5.2-0.4-7.8 0q-0.4-0.9-0.9-1.8-3.6 0.6-7 2.1c-4.5 6.6-5.7 13-5.1 19.3 2.6 2 5.6 3.4 8.7 4.4q1-1.4 1.8-3-1.5-0.6-2.9-1.4 0.4-0.3 0.7-0.5c5.5 2.5 11.8 2.5 17.2 0q0.4 0.3 0.7 0.5-1.4 0.8-2.9 1.4 0.8 1.6 1.9 3c3.1-1 6-2.4 8.6-4.4 0.7-7.3-1.2-13.6-5.1-19.3z"/>
	</g>
</svg>