<svg version="1.2" xmlns="http://www.w3.org/2000/svg" viewBox="0 0 70 70" width="70" height="70">
	<title>Instagram</title>
	<style>
		.s0 { fill: #ffffff } 
	</style>
	<g id="Layer">
		<path id="Layer" fill-rule="evenodd" class="s0" d="m45.6 29.9v10.7c0 3-2.5 5.5-5.5 5.5h-10.7c-3 0-5.5-2.5-5.5-5.5v-10.7c0-3 2.5-5.5 5.5-5.5h10.7c3 0 5.5 2.5 5.5 5.5zm-4.2 5.4c0-3.7-2.9-6.6-6.6-6.6-3.6 0-6.5 2.9-6.5 6.6 0 3.6 2.9 6.5 6.5 6.5 3.7 0 6.6-2.9 6.6-6.5zm2-7c0-0.9-0.7-1.6-1.6-1.6-0.9 0-1.6 0.7-1.6 1.6 0 0.8 0.7 1.5 1.6 1.5 0.9 0 1.6-0.7 1.6-1.5z"/>
		<path id="Layer" class="s0" d="m34.8 39.5c-2.3 0-4.2-1.9-4.2-4.2 0-2.3 1.9-4.2 4.2-4.2 2.4 0 4.3 1.9 4.3 4.2 0 2.3-1.9 4.2-4.3 4.2z"/>
		<path id="Layer" fill-rule="evenodd" class="s0" d="m61.8 35.3c0 14.9-12.1 27-27.1 27-14.9 0-27-12.1-27-27 0-15 12.1-27.1 27-27.1 15 0 27.1 12.1 27.1 27.1zm-13.7-5.3c0-4.5-3.6-8.1-8-8.1h-10.7c-4.4 0-8 3.6-8 8.1v10.6c0 4.4 3.6 8 8 8h10.7c4.4 0 8-3.6 8-8z"/>
	</g>
</svg>