<svg version="1.2" xmlns="http://www.w3.org/2000/svg" viewBox="0 0 70 70" width="70" height="70">
	<title>Twitter</title>
	<style>
		.s0 { fill: #ffffff } 
	</style>
	<path id="Layer" fill-rule="evenodd" class="s0" d="m62.2 35.3c0 14.9-12.1 27-27.1 27-14.9 0-27-12.1-27-27 0-15 12.1-27.1 27-27.1 15 0 27.1 12.1 27.1 27.1zm-10.9-10.1c0-0.1 0-0.1-0.1 0-1 0.4-2.2 0.7-3.3 0.9 0.5-0.1 1.3-1 1.6-1.4 0.5-0.6 0.9-1.3 1.1-2 0-0.1 0.1-0.2 0-0.2q-0.1 0-0.2 0c-1.2 0.7-2.5 1.2-3.9 1.5q-0.1 0-0.2-0.1-0.2-0.2-0.4-0.3-0.8-0.8-1.9-1.2c-0.9-0.4-1.9-0.5-2.9-0.4-0.9 0-1.8 0.3-2.7 0.7-0.8 0.5-1.6 1.1-2.2 1.8-0.6 0.8-1.1 1.7-1.3 2.7-0.3 0.9-0.2 1.8-0.1 2.8 0 0.1 0 0.2-0.1 0.1-5.4-0.8-9.8-2.7-13.4-6.8-0.1-0.2-0.2-0.2-0.4 0-1.5 2.4-0.8 6.2 1.2 8q0.4 0.4 0.8 0.8c-0.1 0-1.4-0.2-2.6-0.8q-0.2-0.1-0.2 0.2c0 0.2 0 0.5 0 0.8 0.3 2.4 2 4.6 4.3 5.4q0.4 0.2 0.8 0.3c-0.5 0.1-1 0.2-2.5 0.1q-0.3-0.1-0.2 0.2c1.1 3 3.5 3.9 5.3 4.4 0.3 0.1 0.5 0.1 0.7 0.1q0 0.1 0 0.1c-0.6 0.9-2.7 1.6-3.6 1.9-1.8 0.6-3.7 0.9-5.5 0.7-0.3 0-0.4 0-0.5 0-0.1 0.1 0 0.1 0.1 0.2q0.6 0.4 1.2 0.7 1.7 0.9 3.7 1.5c6.6 1.8 14 0.4 19-4.5 3.9-3.9 5.3-9.2 5.3-14.6 0-0.2 0.2-0.3 0.4-0.4 1-0.8 1.8-1.7 2.6-2.7 0.1-0.3 0.1-0.5 0.1-0.5 0-0.1 0-0.1 0 0z"/>
</svg>